#!OML:ASF H:\ManfredETheater\Project 1\Capture day 1\Session 1\subject.ASF
:FULLY-SPECIFIED
:DEGREES
109
root 0.344786 21.9555 -7.15685 -177.905 -46.678 171.06
lowerback 9.43729 -7.44328 -8.51527
upperback -0.538565 -10.8468 0.82749
thorax -4.08223 -5.1942 6.7956
lowerneck -14.0851 -1.05892 -3.15651
upperneck 11.2674 -0.746532 -0.583516
head 5.72477 -0.561298 0.258797
rclavicle 1.05225e-013 -1.43125e-014
rhumerus -62.7059 8.46465 -16.6265
rradius 34.2701
rwrist -14.1648
rhand -28.135 -0.353402
rfingers 7.12502
rthumb -1.51628 -30.3278
lclavicle 1.05225e-013 -1.43125e-014
lhumerus -27.9307 -13.5325 32.9784
lradius 118.007
lwrist 16.4553
lhand -24.0534 -13.2852
lfingers 7.12502
lthumb 2.42576 16.6807
rfemur -42.6798 -2.98471 -6.42043
rtibia 19.2443
rfoot 7.29234 -25.029
rtoes -11.2966
lfemur 20.2026 -9.75594 -7.1981
ltibia 74.5981
lfoot 32.7633 -8.18677
ltoes 7.4764
110
root 0.182189 21.8322 -7.6392 -178.082 -46.826 170.771
lowerback 9.39108 -7.35065 -8.96579
upperback -0.652277 -10.7834 0.643783
thorax -4.14445 -5.14541 6.8426
lowerneck -13.924 -1.13457 -3.21187
upperneck 11.7209 -0.871255 -0.399793
head 5.84372 -0.617976 0.314297
rclavicle -7.57245e-015 2.38542e-015
rhumerus -62.1209 9.2449 -15.7851
rradius 34.9018
rwrist -14.4064
rhand -28.1508 -0.37057
rfingers 7.12502
rthumb -1.53153 -30.3448
lclavicle -7.57245e-015 2.38542e-015
lhumerus -28.9945 -14.2159 30.8352
lradius 118.05
lwrist 16.8613
lhand -23.8075 -13.1258
lfingers 7.12502
lthumb 2.66323 16.8373
rfemur -41.4253 -2.09657 -6.89211
rtibia 18.7784
rfoot 8.17762 -24.9717
rtoes -11.2266
lfemur 20.1071 -10.1637 -6.86861
ltibia 75.8139
lfoot 32.1558 -8.53056
ltoes 7.5511
111
root 0.0181445 21.6972 -8.11889 -178.241 -46.9222 170.49
lowerback 9.32714 -7.23602 -9.3863
upperback -0.773229 -10.6871 0.462909
thorax -4.21613 -5.07995 6.8727
lowerneck -13.7603 -1.2186 -3.294
upperneck 12.1663 -1.00514 -0.222635
head 5.9604 -0.681397 0.371217
rclavicle 1.83839e-013 2.22639e-014
rhumerus -61.4825 10.0776 -14.9698
rradius 35.5322
rwrist -14.5673
rhand -28.0917 -0.327513
rfingers 7.12502
rthumb -1.47452 -30.3022
lclavicle 1.83839e-013 2.22639e-014
lhumerus -29.9786 -14.997 28.7066
lradius 118.026
lwrist 17.2794
lhand -23.5723 -12.9952
lfingers 7.12502
lthumb 2.89041 16.9649
rfemur -40.236 -1.28735 -7.24361
rtibia 18.3277
rfoot 9.06085 -24.8326
rtoes -11.2234
lfemur 19.9651 -10.5049 -6.5629
ltibia 77.0171
lfoot 31.3814 -8.89859
ltoes 7.60262
112
root -0.147284 21.5507 -8.59642 -178.406 -46.9661 170.255
lowerback 9.2342 -7.1018 -9.75419
upperback -0.898246 -10.5562 0.293051
thorax -4.29033 -4.99817 6.88036
lowerneck -13.5946 -1.30681 -3.4149
upperneck 12.6027 -1.1411 -0.0436908
head 6.07473 -0.74809 0.434815
rclavicle 1.94809e-014 2.54444e-014
rhumerus -60.7974 10.9519 -14.1756
rradius 36.1711
rwrist -14.6842
rhand -27.9612 -0.269167
rfingers 7.12502
rthumb -1.34843 -30.2447
lclavicle 1.94809e-014 2.54444e-014
lhumerus -30.8859 -15.8716 26.6076
lradius 117.944
lwrist 17.7081
lhand -23.3326 -12.888
lfingers 7.12502
lthumb 3.12191 17.0689
rfemur -39.1081 -0.552473 -7.45295
rtibia 17.9036
rfoot 9.93619 -24.6907
rtoes -11.2652
lfemur 19.773 -10.7733 -6.24536
ltibia 78.2181
lfoot 30.4396 -9.29531
ltoes 7.57071
113
root -0.313955 21.3928 -9.07164 -178.588 -46.9591 170.076
lowerback 9.11083 -6.94997 -10.0584
upperback -1.02023 -10.3911 0.138087
thorax -4.35962 -4.90124 6.86308
lowerneck -13.4275 -1.39679 -3.55944
upperneck 13.0088 -1.27458 0.111945
head 6.1798 -0.816846 0.495149
rclavicle -5.73991e-015 3.89618e-014
rhumerus -60.0652 11.8454 -13.3947
rradius 36.8209
rwrist -14.78
rhand -27.7767 -0.185099
rfingers 7.12502
rthumb -1.17027 -30.1616
lclavicle -5.73991e-015 3.89618e-014
lhumerus -31.7253 -16.8195 24.5549
lradius 117.821
lwrist 18.141
lhand -23.0855 -12.8046
lfingers 7.12502
lthumb 3.36056 17.1487
rfemur -38.0424 0.0852198 -7.50737
rtibia 17.5224
rfoot 10.7998 -24.6204
rtoes -11.209
lfemur 19.5287 -10.973 -5.91213
ltibia 79.4274
lfoot 29.3402 -9.68752
ltoes 7.52906
114
root -0.481854 21.2238 -9.54468 -178.81 -46.8994 169.98
lowerback 8.95428 -6.78157 -10.2784
upperback -1.13528 -10.1892 0.00328051
thorax -4.4207 -4.78893 6.81477
lowerneck -13.273 -1.48909 -3.7495
upperneck 13.3983 -1.40495 0.271607
head 6.28262 -0.886388 0.564449
rclavicle 7.65072e-014 1.59028e-015
rhumerus -59.3021 12.7521 -12.6305
rradius 37.5038
rwrist -14.8702
rhand -27.5711 -0.101189
rfingers 7.12502
rthumb -0.97169 -30.0787
lclavicle 7.65072e-014 1.59028e-015
lhumerus -32.5217 -17.8223 22.5624
lradius 117.674
lwrist 18.5461
lhand -22.8062 -12.741
lfingers 7.12502
lthumb 3.63027 17.2078
rfemur -37.0413 0.626207 -7.38845
rtibia 17.2115
rfoot 11.6804 -24.6997
rtoes -11.0718
lfemur 19.2361 -11.1011 -5.5372
ltibia 80.651
lfoot 28.0836 -10.059
ltoes 7.45091
115
root -0.650988 21.0438 -10.0154 -179.07 -46.7939 169.954
lowerback 8.76689 -6.59854 -10.4207
upperback -1.23174 -9.95314 -0.11202
thorax -4.46026 -4.66379 6.73769
lowerneck -13.1508 -1.58162 -3.97932
upperneck 13.7615 -1.52756 0.429026
head 6.38341 -0.95429 0.640162
rclavicle 3.91606e-014 -5.1684e-015
rhumerus -58.5082 13.6456 -11.8806
rradius 38.2251
rwrist -14.9493
rhand -27.3795 -0.0297806
rfingers 7.12502
rthumb -0.786661 -30.0081
lclavicle 3.91606e-014 -5.1684e-015
lhumerus -33.2768 -18.8423 20.6614
lradius 117.497
lwrist 18.8863
lhand -22.4817 -12.689
lfingers 7.12502
lthumb 3.94358 17.2542
rfemur -36.0998 1.05249 -7.1054
rtibia 16.9988
rfoot 12.6024 -24.9917
rtoes -10.6883
lfemur 18.8986 -11.1645 -5.13452
ltibia 81.8965
lfoot 26.6646 -10.4197
ltoes 7.35214
116
root -0.821405 20.8528 -10.484 -179.358 -46.6544 169.968
lowerback 8.55832 -6.40203 -10.5058
upperback -1.30536 -9.68792 -0.21504
thorax -4.47551 -4.5283 6.63682
lowerneck -13.0522 -1.67098 -4.22626
upperneck 14.085 -1.63896 0.566952
head 6.47602 -1.01882 0.713509
rclavicle -1.95157e-013 1.63003e-014
rhumerus -57.7002 14.516 -11.1485
rradius 38.9953
rwrist -15.0071
rhand -27.2296 0.00431808
rfingers 7.12502
rthumb -0.641815 -29.9745
lclavicle -1.95157e-013 1.63003e-014
lhumerus -34.0185 -19.8587 18.8759
lradius 117.3
lwrist 19.1246
lhand -22.1143 -12.6487
lfingers 7.12502
lthumb 4.29842 17.2877
rfemur -35.2075 1.30891 -6.66397
rtibia 16.9162
rfoot 13.6134 -25.4826
rtoes -9.9588
lfemur 18.5193 -11.1735 -4.73631
ltibia 83.1724
lfoot 25.0835 -10.7491
ltoes 7.20338
